<?xml version="1.0" standalone="no"?>
<!DOCTYPE svg PUBLIC "-//W3C//DTD SVG 20010904//EN"
 "http://www.w3.org/TR/2001/REC-SVG-20010904/DTD/svg10.dtd">
<svg version="1.0" xmlns="http://www.w3.org/2000/svg"
 width="497.000000pt" height="497.000000pt" viewBox="0 0 497.000000 497.000000"
 preserveAspectRatio="xMidYMid meet">
<metadata>
Created by potrace 1.14, written by Peter Selinger 2001-2017
</metadata>
<g transform="translate(0.000000,497.000000) scale(0.100000,-0.100000)"
fill="#000000" stroke="none">
<path d="M2335 4370 c-80 -18 -134 -66 -192 -169 -21 -36 -43 -75 -50 -86 -7
-11 -15 -27 -20 -35 -4 -8 -19 -35 -33 -61 -15 -25 -38 -65 -52 -90 -14 -24
-60 -103 -102 -175 -42 -72 -76 -136 -76 -142 0 -6 -4 -12 -8 -14 -10 -4 -162
-266 -162 -279 0 -5 -3 -9 -8 -9 -4 0 -13 -15 -21 -32 -8 -18 -17 -35 -20 -38
-6 -5 -24 -36 -58 -100 -10 -19 -21 -37 -24 -40 -3 -3 -14 -21 -24 -40 -10
-19 -21 -37 -24 -40 -3 -3 -24 -39 -45 -80 -22 -41 -46 -81 -53 -88 -7 -8 -11
-18 -8 -23 4 -5 1 -9 -5 -9 -6 0 -8 -4 -5 -10 3 -5 2 -10 -2 -10 -5 0 -23 -27
-41 -60 -18 -33 -37 -62 -43 -65 -5 -4 -7 -11 -4 -16 4 -5 1 -9 -5 -9 -6 0 -9
-4 -5 -9 3 -5 1 -12 -4 -15 -5 -4 -26 -37 -47 -74 -20 -37 -42 -70 -48 -74 -6
-4 -7 -8 -2 -8 4 0 -3 -15 -17 -34 -15 -18 -23 -36 -20 -40 3 -3 -2 -8 -11
-12 -9 -3 -14 -10 -11 -14 3 -4 -5 -19 -16 -34 -11 -14 -17 -26 -12 -26 4 0 3
-4 -3 -8 -6 -4 -25 -34 -44 -67 -19 -33 -38 -63 -43 -66 -5 -3 -9 -10 -9 -15
-1 -18 -21 -54 -30 -54 -5 0 -6 -4 -3 -10 3 -5 1 -10 -4 -10 -6 0 -11 -4 -11
-10 0 -8 -24 -51 -77 -137 -7 -13 -14 -26 -14 -30 -1 -5 -10 -19 -20 -32 -11
-13 -19 -30 -19 -37 0 -8 -4 -14 -10 -14 -5 0 -13 -12 -16 -26 -4 -15 -15 -35
-26 -46 -10 -10 -16 -23 -13 -28 4 -6 1 -10 -4 -10 -6 0 -11 -7 -11 -15 0 -8
-5 -15 -11 -15 -5 0 -7 -5 -4 -10 3 -6 -1 -13 -9 -16 -9 -3 -14 -10 -11 -14 3
-5 -1 -14 -8 -22 -7 -7 -19 -28 -26 -45 -7 -18 -17 -33 -22 -33 -5 0 -9 -5 -9
-11 0 -7 -18 -40 -40 -75 -22 -35 -37 -64 -33 -64 5 0 3 -4 -2 -8 -12 -8 -49
-64 -50 -74 0 -4 -6 -13 -12 -19 -7 -7 -13 -19 -13 -25 0 -7 -6 -19 -13 -26
-6 -7 -19 -26 -27 -43 -8 -16 -18 -32 -21 -35 -3 -3 -22 -36 -43 -75 -21 -38
-43 -73 -49 -77 -7 -4 -8 -8 -4 -8 4 0 2 -10 -4 -23 -7 -12 -14 -48 -16 -79
-7 -100 52 -196 147 -241 l45 -21 1905 -1 c1048 0 1921 3 1940 7 53 13 53 13
85 30 75 41 125 139 118 233 -4 49 -48 151 -81 189 -10 10 -16 21 -14 25 1 3
-5 14 -13 23 -8 10 -21 32 -30 50 -8 18 -29 56 -45 83 -17 28 -34 57 -37 65
-4 8 -9 17 -12 20 -3 3 -12 16 -19 29 -8 13 -63 109 -123 213 -60 104 -109
194 -109 199 0 5 -4 9 -9 9 -5 0 -11 8 -15 18 -3 9 -14 31 -23 47 -15 25 -45
76 -98 167 -81 139 -105 183 -105 190 0 4 -4 8 -10 8 -5 0 -10 4 -10 8 0 5
-39 76 -86 158 -86 149 -108 185 -143 247 -10 17 -32 56 -50 85 -17 29 -31 55
-31 58 0 3 -8 18 -19 32 -10 15 -28 43 -39 64 -49 86 -256 445 -270 468 -9 14
-17 27 -17 30 0 3 -27 50 -59 105 -180 306 -194 329 -218 375 -20 39 -30 55
-70 116 -15 23 -25 44 -22 46 2 3 -2 11 -11 18 -8 7 -15 18 -15 25 0 8 -3 15
-7 17 -5 2 -19 25 -33 53 -14 27 -28 54 -33 60 -4 5 -21 31 -37 56 -57 87
-166 133 -265 109z"/>
</g>
</svg>
